<mxfile host="app.diagrams.net" modified="2023-04-25T07:34:23.305Z" agent="Mozilla/5.0 (Macintosh; Intel Mac OS X 10_15_7) AppleWebKit/537.36 (KHTML, like Gecko) Chrome/112.0.0.0 Safari/537.36" version="21.1.8" etag="RoujPGxqFnA_zu_GkE7x" type="github">
  <diagram name="第 1 页" id="gqrQ67TxU9VEmfnCN-EX">
    <mxGraphModel>
      <root>
        <mxCell id="0" />
        <mxCell id="1" parent="0" />
      </root>
    </mxGraphModel>
  </diagram>
</mxfile>
